<svg xmlns="http://www.w3.org/2000/svg" width="1800" height="1120" viewBox="0 0 1800 1120" role="img" aria-labelledby="title description">
  <title id="title">Deterministic dynamic-programming work counts</title>
  <desc id="description">Six fixed password-policy cases compare exact logical occupied cells and transition calls with preflight bounds. The rejected case records no dynamic-programming enumeration.</desc>
  <defs>
    <marker id="arrow-teal" viewBox="0 0 10 10" refX="9" refY="5" markerWidth="8" markerHeight="8" orient="auto-start-reverse">
      <path d="M 0 0 L 10 5 L 0 10 z" fill="#63e6d2"/>
    </marker>
    <marker id="arrow-gold" viewBox="0 0 10 10" refX="9" refY="5" markerWidth="8" markerHeight="8" orient="auto-start-reverse">
      <path d="M 0 0 L 10 5 L 0 10 z" fill="#f4c95d"/>
    </marker>
    <filter id="shadow" x="-20%" y="-20%" width="140%" height="140%">
      <feDropShadow dx="0" dy="8" stdDeviation="12" flood-color="#000000" flood-opacity=".28"/>
    </filter>
    <style>
      .title { fill: #edf5f1; font: 700 42px system-ui, sans-serif; letter-spacing: -1px; }
      .subtitle { fill: #9fb4ad; font: 400 20px system-ui, sans-serif; }
      .lane { fill: #63e6d2; font: 700 15px ui-monospace, monospace; letter-spacing: 2px; }
      .node-title { fill: #edf5f1; font: 700 22px system-ui, sans-serif; }
      .node-detail { fill: #9fb4ad; font: 400 16px system-ui, sans-serif; }
      .node-code { fill: #f4c95d; font: 600 15px ui-monospace, monospace; }
      .step { fill: #0a1014; font: 800 15px ui-monospace, monospace; }
      .caption { fill: #9fb4ad; font: 400 16px system-ui, sans-serif; }
    </style>
  </defs>
  <rect width="1800" height="1120" rx="28" fill="#0a1014"/>
  <path d="M0 0 H1800 V1120 H0 Z" fill="none" stroke="#36505a" stroke-width="2"/>
  <text x="70" y="78" class="title">Logical DP work, measured without a stopwatch</text>
  <text x="70" y="118" class="subtitle">Five accepted policies expose actual table work; the sixth proves the preflight budget stops before enumeration.</text>
  <rect x="70" y="150" width="1660" height="74" rx="18" fill="#17262d" stroke="#36505a"/>
  <text x="100" y="182" class="lane">DETERMINISTIC COUNTER CONTRACT · cProfile CALL COUNTS + ITERATOR COUNTERS</text>
  <text x="100" y="208" class="caption">Logical operations only · no elapsed time · no RSS · no hardware performance claim</text>
  <text x="470" y="270" class="lane">OCCUPIED DP CELLS / RECTANGULAR BOUND</text>
  <text x="1125" y="270" class="lane">_CONSUME CALLS / TRANSITION BOUND</text>
  <g id="dp-work-default-visible-ascii-20" role="group" aria-label="Default visible ASCII; length 20; occupied cells 304; cell bound 336; transition calls 1212; transition bound 1344">
    <rect x="55" y="288" width="1690" height="105" rx="15" fill="#111c21" stroke="#36505a"/>
    <text x="78" y="320" class="node-title">Default visible ASCII</text>
    <text x="78" y="350" class="node-detail">L=20 · minima 1 / 1 / 1 / 1</text>
    <text x="78" y="377" class="node-code">product 20 calls · 320 vectors · consume 1,212</text>
    <rect x="470" y="303" width="500" height="18" rx="9" fill="#17262d" stroke="#36505a"/><rect x="470" y="303" width="452" height="18" rx="9" fill="#63e6d2"/>
    <text x="470" y="350" class="node-detail">304 occupied / 336 bound</text>
    <rect x="1125" y="303" width="500" height="18" rx="9" fill="#17262d" stroke="#36505a"/><rect x="1125" y="303" width="451" height="18" rx="9" fill="#63e6d2"/>
    <text x="1125" y="350" class="node-detail">1,212 calls / 1,344 bound</text>
  </g>  <g id="dp-work-balanced-visible-ascii-24" role="group" aria-label="Balanced strict minima; length 24; occupied cells 31213; cell bound 60025; transition calls 124848; transition bound 240100">
    <rect x="55" y="408" width="1690" height="105" rx="15" fill="#111c21" stroke="#36505a"/>
    <text x="78" y="440" class="node-title">Balanced strict minima</text>
    <text x="78" y="470" class="node-detail">L=24 · minima 6 / 6 / 6 / 6</text>
    <text x="78" y="497" class="node-code">product 24 calls · 57,624 vectors · consume 124,848</text>
    <rect x="470" y="423" width="500" height="18" rx="9" fill="#17262d" stroke="#36505a"/><rect x="470" y="423" width="260" height="18" rx="9" fill="#63e6d2"/>
    <text x="470" y="470" class="node-detail">31,213 occupied / 60,025 bound</text>
    <rect x="1125" y="423" width="500" height="18" rx="9" fill="#17262d" stroke="#36505a"/><rect x="1125" y="423" width="260" height="18" rx="9" fill="#63e6d2"/>
    <text x="1125" y="470" class="node-detail">124,848 calls / 240,100 bound</text>
  </g>  <g id="dp-work-skewed-visible-ascii-24" role="group" aria-label="Skewed strict minima; length 24; occupied cells 2288; cell bound 4400; transition calls 9148; transition bound 17600">
    <rect x="55" y="528" width="1690" height="105" rx="15" fill="#111c21" stroke="#36505a"/>
    <text x="78" y="560" class="node-title">Skewed strict minima</text>
    <text x="78" y="590" class="node-detail">L=24 · minima 21 / 1 / 1 / 1</text>
    <text x="78" y="617" class="node-code">product 24 calls · 4,224 vectors · consume 9,148</text>
    <rect x="470" y="543" width="500" height="18" rx="9" fill="#17262d" stroke="#36505a"/><rect x="470" y="543" width="260" height="18" rx="9" fill="#63e6d2"/>
    <text x="470" y="590" class="node-detail">2,288 occupied / 4,400 bound</text>
    <rect x="1125" y="543" width="500" height="18" rx="9" fill="#17262d" stroke="#36505a"/><rect x="1125" y="543" width="260" height="18" rx="9" fill="#63e6d2"/>
    <text x="1125" y="590" class="node-detail">9,148 calls / 17,600 bound</text>
  </g>  <g id="dp-work-near-budget-eight-class-32" role="group" aria-label="Eight-class budget edge; length 32; occupied cells 164025; cell bound 216513; transition calls 1312192; transition bound 1732104">
    <rect x="55" y="648" width="1690" height="105" rx="15" fill="#111c21" stroke="#36505a"/>
    <text x="78" y="680" class="node-title">Eight-class budget edge</text>
    <text x="78" y="710" class="node-detail">L=32 · minima 2 / 2 / 2 / 2 / 2 / 2 / 2 / 2</text>
    <text x="78" y="737" class="node-code">product 32 calls · 209,952 vectors · consume 1,312,192</text>
    <rect x="470" y="663" width="500" height="18" rx="9" fill="#17262d" stroke="#36505a"/><rect x="470" y="663" width="379" height="18" rx="9" fill="#63e6d2"/>
    <text x="470" y="710" class="node-detail">164,025 occupied / 216,513 bound</text>
    <rect x="1125" y="663" width="500" height="18" rx="9" fill="#17262d" stroke="#36505a"/><rect x="1125" y="663" width="379" height="18" rx="9" fill="#63e6d2"/>
    <text x="1125" y="710" class="node-detail">1,312,192 calls / 1,732,104 bound</text>
  </g>  <g id="dp-work-arbitrary-precision-one-class-256" role="group" aria-label="Arbitrary-precision depth; length 256; occupied cells 33153; cell bound 66049; transition calls 33152; transition bound 66049">
    <rect x="55" y="768" width="1690" height="105" rx="15" fill="#111c21" stroke="#36505a"/>
    <text x="78" y="800" class="node-title">Arbitrary-precision depth</text>
    <text x="78" y="830" class="node-detail">L=256 · minima 256</text>
    <text x="78" y="857" class="node-code">product 256 calls · 65,792 vectors · consume 33,152</text>
    <rect x="470" y="783" width="500" height="18" rx="9" fill="#17262d" stroke="#36505a"/><rect x="470" y="783" width="251" height="18" rx="9" fill="#63e6d2"/>
    <text x="470" y="830" class="node-detail">33,153 occupied / 66,049 bound</text>
    <rect x="1125" y="783" width="500" height="18" rx="9" fill="#17262d" stroke="#36505a"/><rect x="1125" y="783" width="251" height="18" rx="9" fill="#63e6d2"/>
    <text x="1125" y="830" class="node-detail">33,152 calls / 66,049 bound</text>
  </g>  <g id="dp-work-rejected-eight-class-32" role="group" aria-label="Fail-fast budget guard; length 32; occupied cells 0; cell bound 2162688; transition calls 0; transition bound 17301504">
    <rect x="55" y="888" width="1690" height="105" rx="15" fill="#111c21" stroke="#36505a"/>
    <text x="78" y="920" class="node-title">Fail-fast budget guard</text>
    <text x="78" y="950" class="node-detail">L=32 · minima 3 / 3 / 3 / 3 / 3 / 3 / 3 / 3</text>
    <text x="78" y="977" class="node-code">product 0 calls · 0 vectors · consume 0</text>
    <rect x="470" y="903" width="500" height="18" rx="9" fill="#17262d" stroke="#f4c95d" stroke-width="2" stroke-dasharray="8 7"/>
    <text x="470" y="950" class="node-detail">preflight stop · bound 2,162,688 / budget 250,000</text>
    <rect x="1125" y="903" width="500" height="18" rx="9" fill="#17262d" stroke="#f4c95d" stroke-width="2" stroke-dasharray="8 7"/>
    <text x="1125" y="950" class="node-detail">preflight stop · bound 17,301,504 / budget 2,000,000</text>
  </g>
  <text x="70" y="1075" class="caption">Bars encode exact observed-to-bound ratios; every raw integer remains printed beside its bar.</text>
  <text x="1730" y="1075" text-anchor="end" class="node-code">rejected case: product 0 · consume 0</text>
</svg>
